HIERARCHY
ROOT hips
{
  OFFSET 0 10.6860622 2.3727825e-15
  CHANNELS 6 Xposition Yposition Zposition Yrotation Xrotation Zrotation
  JOINT leftUpperLeg
  {
    OFFSET 0.6642549969 -0.9402397400000004 0
    CHANNELS 3 Yrotation Xrotation Zrotation
    JOINT leftLowerLeg
    {
      OFFSET 0 -3.997221335632195 0
      CHANNELS 3 Yrotation Xrotation Zrotation
      JOINT leftFoot
      {
        OFFSET -0.13777839790000004 -4.6145792000000005 -0.22186036399999998
        CHANNELS 3 Yrotation Xrotation Zrotation
        JOINT leftToes
        {
          OFFSET -0.03777410834999995 -0.9130806927000008 0.85230013
          CHANNELS 3 Yrotation Xrotation Zrotation
          End Site
          {
            OFFSET -0.03777410834999995 -0.9130806927000008 0.85230013
          }
        }
      }
    }
  }
  JOINT rightUpperLeg
  {
    OFFSET -0.6642778626 -0.9402397400000004 0
    CHANNELS 3 Yrotation Xrotation Zrotation
    JOINT rightLowerLeg
    {
      OFFSET 0 -3.997221452859387 0
      CHANNELS 3 Yrotation Xrotation Zrotation
      JOINT rightFoot
      {
        OFFSET 0.1377926176 -4.6145792000000005 -0.22185782299999995
        CHANNELS 3 Yrotation Xrotation Zrotation
        JOINT rightToes
        {
          OFFSET 0.037780746850000047 -0.9130806927000008 0.85230167
          CHANNELS 3 Yrotation Xrotation Zrotation
          End Site
          {
            OFFSET 0.037780746850000047 -0.9130806927000008 0.85230167
          }
        }
      }
    }
  }
  JOINT spine
  {
    OFFSET 0 0.13988381660000015 0
    CHANNELS 3 Yrotation Xrotation Zrotation
    JOINT chest
    {
      OFFSET 0 0.6191039003973773 0
      CHANNELS 3 Yrotation Xrotation Zrotation
      JOINT upperChest
      {
        OFFSET 0 0.9855186130586943 0
        CHANNELS 3 Yrotation Xrotation Zrotation
        JOINT leftShoulder
        {
          OFFSET 0.1807663869 1.5087829790000005 0
          CHANNELS 3 Yrotation Xrotation Zrotation
          JOINT leftUpperArm
          {
            OFFSET 0.5985063006419806 0 0
            CHANNELS 3 Yrotation Xrotation Zrotation
            JOINT leftLowerArm
            {
              OFFSET 2.2993332369501065 0 0
              CHANNELS 3 Yrotation Xrotation Zrotation
              JOINT leftHand
              {
                OFFSET 2.395047042602395 0 0
                CHANNELS 3 Yrotation Xrotation Zrotation
                JOINT leftIndexProximal
                {
                  OFFSET 0.5766295810000004 0.04556643899499946 0.17265095988184
                  CHANNELS 3 Yrotation Xrotation Zrotation
                  JOINT leftIndexIntermediate
                  {
                    OFFSET 0.2957229000000008 -0.019352197700001517 -0.007932640616999987
                    CHANNELS 3 Yrotation Xrotation Zrotation
                    JOINT leftIndexDistal
                    {
                      OFFSET 0.19008243099999922 -0.012484908149998475 -0.002786250786000012
                      CHANNELS 3 Yrotation Xrotation Zrotation
                      End Site
                      {
                        OFFSET 0.19008243099999922 -0.012484908149998475 -0.002786250786000012
                      }
                    }
                  }
                }
                JOINT leftMiddleProximal
                {
                  OFFSET 0.5834975091000001 0.0524350405149987 0.02204081888183999
                  CHANNELS 3 Yrotation Xrotation Zrotation
                  JOINT leftMiddleIntermediate
                  {
                    OFFSET 0.33880573540000003 -0.019871473270000717 -0.00000971183179999946
                    CHANNELS 3 Yrotation Xrotation Zrotation
                    JOINT leftMiddleDistal
                    {
                      OFFSET 0.20676022730000088 -0.012221336379999448 0.0001471936708000235
                      CHANNELS 3 Yrotation Xrotation Zrotation
                      End Site
                      {
                        OFFSET 0.20676022730000088 -0.012221336379999448 0.0001471936708000235
                      }
                    }
                  }
                }
                JOINT leftLittleProximal
                {
                  OFFSET 0.5344154683999995 -0.012880921405001189 -0.24414037221816004
                  CHANNELS 3 Yrotation Xrotation Zrotation
                  JOINT leftLittleIntermediate
                  {
                    OFFSET 0.21758961730000093 -0.011650919939999227 0.011893592810000034
                    CHANNELS 3 Yrotation Xrotation Zrotation
                    JOINT leftLittleDistal
                    {
                      OFFSET 0.1475273964999999 -0.008152365682999818 0.006001092492999946
                      CHANNELS 3 Yrotation Xrotation Zrotation
                      End Site
                      {
                        OFFSET 0.1475273964999999 -0.008152365682999818 0.006001092492999946
                      }
                    }
                  }
                }
                JOINT leftRingProximal
                {
                  OFFSET 0.5799399463000003 0.026911854694997794 -0.12150566991816003
                  CHANNELS 3 Yrotation Xrotation Zrotation
                  JOINT leftRingIntermediate
                  {
                    OFFSET 0.26167887460000006 -0.013480186499999602 0.010996293000000053
                    CHANNELS 3 Yrotation Xrotation Zrotation
                    JOINT leftRingDistal
                    {
                      OFFSET 0.17667108799999987 -0.008990287899999228 0.0055541023999999065
                      CHANNELS 3 Yrotation Xrotation Zrotation
                      End Site
                      {
                        OFFSET 0.17667108799999987 -0.008990287899999228 0.0055541023999999065
                      }
                    }
                  }
                }
                JOINT leftThumbProximal
                {
                  OFFSET 0.11018806699999972 -0.09448718900500053 0.17047963138184
                  CHANNELS 3 Yrotation Xrotation Zrotation
                  JOINT leftThumbIntermediate
                  {
                    OFFSET 0.31062601459999983 -0.08126270900000132 0.15443142000000007
                    CHANNELS 3 Yrotation Xrotation Zrotation
                    JOINT leftThumbDistal
                    {
                      OFFSET 0.21627175790000086 -0.08833193599999878 0.018771167799999988
                      CHANNELS 3 Yrotation Xrotation Zrotation
                      End Site
                      {
                        OFFSET 0.21627175790000086 -0.08833193599999878 0.018771167799999988
                      }
                    }
                  }
                }
              }
            }
          }
        }
        JOINT neck
        {
          OFFSET 0 1.5463305265074576 0
          CHANNELS 3 Yrotation Xrotation Zrotation
          JOINT head
          {
            OFFSET 0 0.8456443600000344 0
            CHANNELS 3 Yrotation Xrotation Zrotation
            JOINT leftEye
            {
              OFFSET 0.30408573140000006 0.5104519199999995 0.1276382305
              CHANNELS 3 Yrotation Xrotation Zrotation
              End Site
              {
                OFFSET 0.30408573140000006 0.5104519199999995 0.1276382305
              }
            }
            JOINT rightEye
            {
              OFFSET -0.30409491089999996 0.5104519199999995 0.1276379445
              CHANNELS 3 Yrotation Xrotation Zrotation
              End Site
              {
                OFFSET -0.30409491089999996 0.5104519199999995 0.1276379445
              }
            }
            JOINT jaw
            {
              OFFSET -3.155239131000001e-7 -0.11984121820000082 0.60178107
              CHANNELS 3 Yrotation Xrotation Zrotation
              End Site
              {
                OFFSET -3.155239131000001e-7 -0.11984121820000082 0.60178107
              }
            }
          }
        }
        JOINT rightShoulder
        {
          OFFSET -0.1807303465 1.5087829790000005 0
          CHANNELS 3 Yrotation Xrotation Zrotation
          JOINT rightUpperArm
          {
            OFFSET -0.5985063796536958 0 0
            CHANNELS 3 Yrotation Xrotation Zrotation
            JOINT rightLowerArm
            {
              OFFSET -2.2993322059002854 0 0
              CHANNELS 3 Yrotation Xrotation Zrotation
              JOINT rightHand
              {
                OFFSET -2.395045314457259 0 0
                CHANNELS 3 Yrotation Xrotation Zrotation
                JOINT rightIndexProximal
                {
                  OFFSET -0.5764487688300002 0.0441371204405987 0.17361932004999997
                  CHANNELS 3 Yrotation Xrotation Zrotation
                  JOINT rightIndexIntermediate
                  {
                    OFFSET -0.29573011380000047 -0.01934826376999843 -0.007698921482999974
                    CHANNELS 3 Yrotation Xrotation Zrotation
                    JOINT rightIndexDistal
                    {
                      OFFSET -0.19008373999999884 -0.012503266380000655 -0.0026365778999999897
                      CHANNELS 3 Yrotation Xrotation Zrotation
                      End Site
                      {
                        OFFSET -0.19008373999999884 -0.012503266380000655 -0.0026365778999999897
                      }
                    }
                  }
                }
                JOINT rightMiddleProximal
                {
                  OFFSET -0.5834852037300005 0.05211639405060153 0.02307162440000001
                  CHANNELS 3 Yrotation Xrotation Zrotation
                  JOINT rightMiddleIntermediate
                  {
                    OFFSET -0.33880114510000003 -0.019952774050000954 0.0002455003561999819
                    CHANNELS 3 Yrotation Xrotation Zrotation
                    JOINT rightMiddleDistal
                    {
                      OFFSET -0.20675694929999955 -0.012273788999999091 0.00030209124000002766
                      CHANNELS 3 Yrotation Xrotation Zrotation
                      End Site
                      {
                        OFFSET -0.20675694929999955 -0.012273788999999091 0.00030209124000002766
                      }
                    }
                  }
                }
                JOINT rightLittleProximal
                {
                  OFFSET -0.5346811737299992 -0.011214256288399227 -0.24363941305000003
                  CHANNELS 3 Yrotation Xrotation Zrotation
                  JOINT rightLittleIntermediate
                  {
                    OFFSET -0.21757715980000092 -0.011771559690000988 0.01201554387
                    CHANNELS 3 Yrotation Xrotation Zrotation
                    JOINT rightLittleDistal
                    {
                      OFFSET -0.1475201849000004 -0.00822055339600003 0.006082065407000015
                      CHANNELS 3 Yrotation Xrotation Zrotation
                      End Site
                      {
                        OFFSET -0.1475201849000004 -0.00822055339600003 0.006082065407000015
                      }
                    }
                  }
                }
                JOINT rightRingProximal
                {
                  OFFSET -0.5800810755299999 0.027657985680600072 -0.12066365025000003
                  CHANNELS 3 Yrotation Xrotation Zrotation
                  JOINT rightRingIntermediate
                  {
                    OFFSET -0.26166445029999974 -0.013623118409999302 0.011164098990000045
                    CHANNELS 3 Yrotation Xrotation Zrotation
                    JOINT rightRingDistal
                    {
                      OFFSET -0.17666387530000027 -0.009072900100000503 0.005668185599999959
                      CHANNELS 3 Yrotation Xrotation Zrotation
                      End Site
                      {
                        OFFSET -0.17666387530000027 -0.009072900100000503 0.005668185599999959
                      }
                    }
                  }
                }
                JOINT rightThumbProximal
                {
                  OFFSET -0.10997596379000074 -0.09577489355940072 0.16989765924999997
                  CHANNELS 3 Yrotation Xrotation Zrotation
                  JOINT rightThumbIntermediate
                  {
                    OFFSET -0.31036620999999986 -0.08229339117999834 0.15440884469999996
                    CHANNELS 3 Yrotation Xrotation Zrotation
                    JOINT rightThumbDistal
                    {
                      OFFSET -0.21631306399999906 -0.08825326400000111 0.018656797720000014
                      CHANNELS 3 Yrotation Xrotation Zrotation
                      End Site
                      {
                        OFFSET -0.21631306399999906 -0.08825326400000111 0.018656797720000014
                      }
                    }
                  }
                }
              }
            }
          }
        }
      }
    }
  }
}
MOTION
Frames: 7
Frame Time: 0.03333333333333333
0 11.682712981546562 0 0 0 0 0 0 -5.826343164929014 -0.3712483961610101 -3.6333298826370974 5.838118207697276 0 0 0 0 0 0 0 0 5.826343164929014 0.3712483961610101 -3.6333298826370974 -5.838118207697276 0 0 0 0 0 0 0 -4.610651315171937 0 0 3.0831277533083026 0 0 0 0 0 1.5275236235667615 0 0 0 0 0 0 0 0 0 0 0 0 0 0 0 0 0 0 0 0 0 0 0 0 0 0 0 0 0 0 0 0 0 0 0 0 0 0 0 0 0 0 0 0 0 0 0 0 0 0 0 0 0 0 0 0 1.5275236235667615 0 0 0 0 0 0 0 0 0 0 0 0 0 0 1.5275236235667615 0 0 0 0 0 0 0 0 0 0 0 0 0 0 0 0 0 0 0 0 0 0 0 0 0 0 0 0 0 0 0 0 0 0 0 0 0 0 0 0 0 0 0 0 0 0 0 0 0 0 0 0 0 0 0
2.683922713060767e-7 -0.14269719245438817 -8.589850895210764 0 39.997599049757774 0 -13.1076192817086 -37.23906058796908 17.32497575075187 0.5147368410668215 6.844721597639155 4.932863445510238 8.859872704270854 -3.4180716961197426 3.6397848854772374 0 0 0 7.823051061852228 -41.869898773389885 -8.600301190022885 -0.361308677642451 6.607405158269591 -5.863467801527585 -3.8714446433378833 -5.169443070382847 -0.45039177076652126 0 0 0 -2.80176893103971 59.411910966170204 -3.8499281699925363 -0.64136693707905 1.1328489437456395 -1.3201681400163519 0 0 0 45.24807614134402 33.27481597536671 -33.95143551718133 -1.1003289249133772 46.47890142781122 -36.41928728530998 -3.335551772717918 -0.39715965760994054 2.8859774253724293 13.041003494768582 1.3323634156528805 -5.409908672323581 0 0 0 0 0 0 0 0 0 0 0 0 0 0 0 0 0 0 0 0 0 0 0 0 0 0 0 0 0 0 0 0 0 0 0 0 0 0 0 0 0 0 0 0 0 0 -38.47379825811193 0 0 -1.1593150317341678 0 0 0 0 0 0 0 0 0 0 -43.43322274914474 31.583915926050548 34.239757693945414 0.8564235983684989 46.133364856032905 35.40899531419952 11.592780145114096 -0.2182576486338856 0.4014069044589048 13.050138337450878 -1.4435891991309127 7.0472145130726025 0 0 0 0 0 0 0 0 0 0 0 0 0 0 0 0 0 0 0 0 0 0 0 0 0 0 0 0 0 0 0 0 0 0 0 0 0 0 0 0 0 0 0 0 0
2.683922713060767e-7 -0.14269719245438817 -8.589850895210764 0 39.997603507690535 0 -12.913947311518788 -37.222585703021174 17.355728054319002 0.5406631024985822 6.702375952369872 4.644203243289689 8.669187654075765 -3.371352972241457 3.8177861802057054 0 0 0 7.0609659103127465 -41.985132127616566 -8.238214679479412 -0.36130857020928736 6.60740429878718 -5.863467801527585 -3.2576606119008282 -5.219723399534349 -0.5569369420229147 0 0 0 -2.774272138864322 59.07918312766823 -3.8180344869290783 -0.6416127946765802 1.7983705302964401 -1.3276549375420104 0 0 0 45.0235940704818 32.980604053747356 -34.12057976922284 -1.1437272601435067 46.45781848622302 -36.61182152893155 -3.335551772717918 -0.39715965760994054 2.8859774253724293 13.041003494768582 1.3323634156528805 -5.409908672323581 0 0 0 0 0 0 0 0 0 0 0 0 0 0 0 0 0 0 0 0 0 0 0 0 0 0 0 0 0 0 0 0 0 0 0 0 0 0 0 0 0 0 0 0 0 0 -39.084202413073854 0 0 -2.3118080669124828 0 0 0 0 0 0 0 0 0 0 -43.24592364650801 31.298543755426355 34.38581959074864 0.8564235983684989 46.133364856032905 35.40899531419952 11.592780145114096 -0.21825864915713658 0.4014069044589048 13.05013916943803 -1.4435893058865013 7.0472145130726025 0 0 0 0 0 0 0 0 0 0 0 0 0 0 0 0 0 0 0 0 0 0 0 0 0 0 0 0 0 0 0 0 0 0 0 0 0 0 0 0 0 0 0 0 0
2.683922713060767e-7 -0.14269719245438817 -8.589850895210764 0 39.997599049757774 0 -12.720297737585614 -37.20618730882026 17.38654804534068 0.5673084014306042 6.560145332261172 4.355524677870382 8.478642155491674 -3.3240395538690017 3.99563476462137 0 0 0 6.296223411635345 -42.09682790355328 -7.873294052505661 -0.361308677642451 6.607405158269591 -5.863467801527585 -2.643449247721582 -5.268884998323642 -0.6640755677440381 0 0 0 -2.747395123538265 58.74641826311213 -3.786752968370012 -0.6419465686204296 2.4642522253371553 -1.3351526496940285 0 0 0 44.80084640596953 32.685803005256425 -34.287803496474844 -1.1870140538808547 46.43663468399364 -36.80426439746008 -3.335551772717918 -0.39715965760994054 2.8859774253724293 13.041003494768582 1.3323634156528805 -5.409908672323581 0 0 0 0 0 0 0 0 0 0 0 0 0 0 0 0 0 0 0 0 0 0 0 0 0 0 0 0 0 0 0 0 0 0 0 0 0 0 0 0 0 0 0 0 0 0 -39.69489286497374 0 0 -3.4661839021933467 0 0 0 0 0 0 0 0 0 0 -43.060006846230806 31.01273012843116 34.53036684510868 0.8564149818014376 46.133354999806585 35.40898558681871 11.592780981477336 -0.21825864915713658 0.4014069044589048 13.050138337450878 -1.4435891991309127 7.0472145130726025 0 0 0 0 0 0 0 0 0 0 0 0 0 0 0 0 0 0 0 0 0 0 0 0 0 0 0 0 0 0 0 0 0 0 0 0 0 0 0 0 0 0 0 0 0
2.683922713060767e-7 -0.14269719245438817 -8.589850895210764 0 39.997603507690535 0 -12.526672643535719 -37.18988250172483 17.417434779569607 0.5946688853191442 6.418030909572816 4.06682779145178 8.288243862097515 -3.2761323500765362 4.173330722206882 0 0 0 5.52891474981983 -42.2049263306801 -7.505618493754228 -0.3613087850756147 6.607406017752005 -5.863467801527585 -2.0288499820040093 -5.316919063995681 -0.7717894589512121 0 0 0 -2.721113373959859 58.41358680213575 -3.7560598813725203 -0.6423666615215156 3.130449621588378 -1.3426616651032257 0 0 0 44.57981937728316 32.390418991460564 -34.453151179594386 -1.2301730605096408 46.41534518229555 -36.996609217666965 -3.335551772717918 -0.39715965760994054 2.8859774253724293 13.041004326747341 1.3323635224034478 -5.409908672323581 0 0 0 0 0 0 0 0 0 0 0 0 0 0 0 0 0 0 0 0 0 0 0 0 0 0 0 0 0 0 0 0 0 0 0 0 0 0 0 0 0 0 0 0 0 0 -40.30582215005226 0 0 -4.622210918657892 0 0 0 0 0 0 0 0 0 0 -42.87547186145267 30.72648385927147 34.673426838300614 0.8564235983684989 46.133364856032905 35.40899531419952 11.592780145114096 -0.2182576486338856 0.4014069044589048 13.05013916943803 -1.4435893058865013 7.0472145130726025 0 0 0 0 0 0 0 0 0 0 0 0 0 0 0 0 0 0 0 0 0 0 0 0 0 0 0 0 0 0 0 0 0 0 0 0 0 0 0 0 0 0 0 0 0
2.683922713060767e-7 -0.14269719245438817 -8.589850895210764 0 39.997599049757774 0 -12.333068386013002 -37.1736583618815 17.448386029494504 0.6227447506090164 6.27604287802351 3.7781137724090947 8.097988902897876 -3.2276335510685854 4.350866212470603 0 0 0 4.759135918348936 -42.30939084662064 -7.135277887602709 -0.361308677642451 6.607405158269591 -5.863467801527585 -1.4139004172462695 -5.363818078603013 -0.8800605945562829 0 0 0 -2.6954148438103926 58.080724758114556 -3.725941587745844 -0.6428764244505694 3.7969169368104887 -1.350183532315064 0 0 0 44.36049646968926 32.094482173470006 -34.616647786061094 -1.2732234765281267 46.3939699083385 -37.18887613720064 -3.335551772717918 -0.39715965760994054 2.8859774253724293 13.041003494768582 1.3323634156528805 -5.409908672323581 0 0 0 0 0 0 0 0 0 0 0 0 0 0 0 0 0 0 0 0 0 0 0 0 0 0 0 0 0 0 0 0 0 0 0 0 0 0 0 0 0 0 0 0 0 0 -40.91695871427049 0 0 -5.779658118423402 0 0 0 0 0 0 0 0 0 0 -42.692287168442995 30.439817538341007 34.81500656958106 0.8564235983684989 46.133364856032905 35.40899531419952 11.592779308750853 -0.2182576486338856 0.4014069044589048 13.050137505463724 -1.4435890923753243 7.047214936868969 0 0 0 0 0 0 0 0 0 0 0 0 0 0 0 0 0 0 0 0 0 0 0 0 0 0 0 0 0 0 0 0 0 0 0 0 0 0 0 0 0 0 0 0 0
2.683922713060767e-7 -0.14269719245438817 -8.589850895210764 0 39.997599049757774 0 -12.139489296912831 -37.15751483602647 17.479402892379667 0.6515341807502135 6.134185842989687 3.4893849392635072 7.907888264638332 -3.178544062529254 4.528241739153925 0 0 0 3.986992868708395 -42.41018982079556 -6.76236041813531 -0.361308677642451 6.607405158269591 -5.863467801527585 -0.7986371290784815 -5.409568520328654 -0.9888709286124759 0 0 0 -2.6702770481067413 57.74781550211433 -3.696375615941555 -0.6434732959203994 4.463610361099537 -1.3577208604106612 0 0 0 44.14285592216853 31.797973998623434 -34.778283522579066 -1.316147704145064 46.37248916131774 -37.38103769232683 -3.3355507072832005 -0.39715965760994054 2.8859763594833003 13.041003494768582 1.3323634156528805 -5.409908672323581 0 0 0 0 0 0 0 0 0 0 0 0 0 0 0 0 0 0 0 0 0 0 0 0 0 0 0 0 0 0 0 0 0 0 0 0 0 0 0 0 0 0 0 0 0 0 -41.52826478446588 0 0 -6.938289905997952 0 0 0 0 0 0 0 0 0 0 -42.51044125521398 30.152743528939077 34.95513513510986 0.8564191327645138 46.13335992791952 35.40898844221186 11.592780145114096 -0.2182576486338856 0.4014069044589048 13.050138337450878 -1.4435891991309127 7.0472145130726025 0 0 0 0 0 0 0 0 0 0 0 0 0 0 0 0 0 0 0 0 0 0 0 0 0 0 0 0 0 0 0 0 0 0 0 0 0 0 0 0 0 0 0 0 0
